<svg xmlns="http://www.w3.org/2000/svg" width="1024" height="1024" viewBox="0 0 1024 1024" version="1.1">
	<path d="M 502.394 118.288 C 501.785 118.955, 497.837 122.788, 493.620 126.808 C 489.285 130.939, 486.248 134.592, 486.631 135.212 C 487.017 135.836, 486.852 136.027, 486.248 135.654 C 483.557 133.990, 471.285 152.464, 465.725 166.550 C 460.624 179.474, 459.094 189.025, 459.960 202.546 C 460.765 215.127, 462.820 220.790, 470.470 231.511 C 475.815 239.001, 479.805 242.519, 486.500 245.645 C 491.226 247.852, 498.678 248.907, 497.636 247.221 C 496.845 245.940, 498.969 182.714, 499.897 179.956 C 500.541 178.041, 500.289 176.840, 498.876 175.095 C 496.213 171.807, 496.507 167.766, 499.636 164.636 C 503.159 161.114, 506.217 161.281, 509.494 165.175 C 511.571 167.644, 512.002 168.924, 511.430 170.925 C 510.616 173.773, 509.802 219.184, 510.598 217.356 C 511.161 216.063, 515 216.745, 515 218.138 C 515 218.636, 513.821 219.580, 512.380 220.237 C 509.866 221.382, 509.785 221.670, 510.380 227.362 C 510.721 230.624, 511 236.651, 511 240.755 L 511 248.217 513.750 247.546 C 525.558 244.664, 538.296 233.573, 544.237 221 C 546.187 216.875, 548.339 211.081, 549.020 208.125 C 550.750 200.621, 549.791 186.116, 547.029 178 C 544.031 169.192, 536.053 152.925, 530.845 145 C 526.346 138.155, 506.458 116.973, 504.592 117.038 C 503.991 117.059, 503.002 117.621, 502.394 118.288 M 444.315 131.007 C 439.516 132.941, 438.046 142, 442.011 145.210 C 444.885 147.537, 451.185 147.560, 453.267 145.250 C 457.221 140.863, 456.594 133.875, 452.035 131.518 C 448.747 129.818, 447.476 129.734, 444.315 131.007 M 557.500 131.131 C 554.144 133.007, 553 135.187, 553 139.706 C 553 143.511, 553.390 144.267, 556.250 146.011 C 560.564 148.641, 561.625 148.529, 565.077 145.077 C 568.561 141.593, 569.154 135.350, 566.250 132.733 C 563.804 130.528, 559.867 129.807, 557.500 131.131 M 598.469 137.666 C 586.140 145.237, 580.754 150.396, 576.035 159.150 C 572.674 165.385, 571.388 171.924, 572.430 177.480 C 573.090 180.998, 576.022 185, 577.940 185 C 578.457 185, 581.647 179.645, 585.030 173.101 C 588.413 166.556, 592.493 159.944, 594.098 158.406 L 597.015 155.611 596.369 160.556 C 596.013 163.275, 594.173 169.775, 592.280 175 C 587.331 188.657, 587.454 187.825, 590.280 188.534 C 593.559 189.357, 599.778 186.156, 603.799 181.576 C 607.625 177.219, 611 166.741, 611 159.223 C 611 152.669, 608.249 137.045, 606.779 135.250 C 605.349 133.504, 605.152 133.561, 598.469 137.666 M 402.042 136.922 C 400.065 140.615, 398.030 151.556, 398.027 158.500 C 398.022 169.403, 401.153 179.083, 406.155 183.633 C 409.616 186.781, 414.492 189, 417.950 189 C 420.563 189, 421 188.630, 421 186.415 C 421 184.994, 419.190 179.499, 416.978 174.206 C 414.766 168.912, 412.688 162.762, 412.361 160.540 L 411.765 156.500 414.943 159.580 C 416.691 161.273, 420.456 167.348, 423.310 173.080 C 426.443 179.369, 429.095 183.500, 430 183.500 C 432.921 183.500, 435.161 177.052, 434.710 169.938 C 433.929 157.617, 426.740 147.498, 413.021 139.410 C 404.610 134.450, 403.499 134.199, 402.042 136.922 M 367.589 157.077 C 364.726 160.479, 364.469 162.177, 366.105 166.872 C 369.140 175.577, 381 172.349, 381 162.818 C 381 154.645, 372.645 151.068, 367.589 157.077 M 630.025 155.975 C 625.781 160.219, 626.292 166.652, 631.163 170.278 C 637.805 175.223, 646.544 165.820, 642.526 158.051 C 641.727 156.506, 640.346 154.963, 639.455 154.621 C 636.293 153.408, 631.972 154.028, 630.025 155.975 M 314.604 172.590 C 314.271 173.456, 313.276 179.641, 312.393 186.333 C 310.463 200.952, 310.996 228.598, 313.416 239.412 C 316.602 253.647, 324.328 265.565, 335.570 273.588 C 344.228 279.766, 350.991 282, 361.032 282 C 369.373 282, 378 280.421, 378 278.893 C 378 277.651, 362.537 248.739, 357.734 241 C 355.515 237.425, 350.769 230.972, 347.188 226.660 C 341.343 219.622, 340.772 218.548, 341.607 216.160 C 342.253 214.313, 343.362 213.404, 345.236 213.187 C 349.093 212.739, 361.709 225.577, 370.111 238.500 C 377.557 249.952, 386.358 265.174, 387.937 269.331 C 388.528 270.888, 389.572 271.983, 390.256 271.763 C 391.935 271.224, 397.525 261.818, 400.205 255.021 C 403.063 247.774, 403.797 232.812, 401.690 224.744 C 399.657 216.958, 394.084 207.398, 388.432 202 C 384.002 197.769, 383.831 197.694, 385.576 200.750 C 386.596 202.537, 387.740 204, 388.118 204 C 389.213 204, 395.522 214.026, 397.873 219.500 L 400.020 224.500 396.427 220.250 C 394.451 217.912, 392.402 216, 391.873 216 C 391.345 216, 389.699 214.875, 388.217 213.500 C 385.766 211.227, 383.957 210.510, 381.676 210.906 C 381.222 210.985, 381.136 210.588, 381.485 210.025 C 381.833 209.461, 381.529 208.982, 380.809 208.959 C 380.089 208.936, 377.570 207.172, 375.211 205.039 C 371.620 201.790, 371.027 200.739, 371.569 198.580 C 371.925 197.161, 372.929 196, 373.800 196 C 375.091 196, 375.026 195.711, 373.441 194.426 C 372.374 193.560, 372.063 193.137, 372.750 193.485 C 373.438 193.833, 374 193.572, 374 192.904 C 374 192.025, 374.483 192.077, 375.750 193.095 C 376.712 193.868, 378.625 195.081, 380 195.791 C 381.713 196.676, 381.260 195.961, 378.560 193.521 C 368.957 184.841, 352.856 178.364, 330 173.986 C 324.225 172.880, 318.534 171.759, 317.354 171.494 C 315.992 171.190, 314.988 171.589, 314.604 172.590 M 686.500 172.575 C 683.750 173.380, 678.448 174.470, 674.717 174.996 C 665.212 176.338, 651.257 181.219, 639.503 187.314 C 631.867 191.274, 627.699 194.273, 621.877 200 C 609.413 212.259, 605.389 222.942, 606.172 241.692 C 606.542 250.556, 606.938 252.222, 610.284 259 C 612.321 263.125, 615.054 267.781, 616.359 269.347 L 618.730 272.194 625.010 260.347 C 632.261 246.667, 638.555 236.606, 644.307 229.500 C 650.311 222.081, 661.698 211, 663.317 211 C 665.212 211, 670 214.838, 670 216.357 C 670 217.023, 667.491 220.028, 664.425 223.034 C 661.359 226.040, 656.202 232.440, 652.965 237.255 C 646.632 246.678, 630.244 278.577, 631.230 279.563 C 631.559 279.892, 635.053 280.661, 638.994 281.271 C 647.661 282.612, 657.031 281.288, 665.560 277.516 C 673.833 273.857, 685.361 261.871, 690.346 251.745 C 696.081 240.095, 697.379 231.544, 697.288 206 C 697.206 183.107, 695.795 171.706, 692.994 171.319 C 692.173 171.205, 689.250 171.771, 686.500 172.575 M 674 176.471 C 661.237 178.830, 645.416 184.652, 640.520 188.791 C 637.665 191.206, 634.276 193, 632.571 193 C 630.711 193, 618.911 203.872, 619.142 205.372 C 619.389 206.980, 617.984 210.169, 616 212.500 C 613.787 215.100, 612.783 218, 614.096 218 C 614.664 218, 616.265 216.650, 617.653 215 C 619.042 213.350, 620.700 211.972, 621.339 211.938 C 623.178 211.840, 637.395 199.618, 638.485 197.198 C 639.468 195.015, 649.392 190.171, 664.320 184.588 C 671.539 181.888, 684.540 174.948, 682 175.150 C 681.175 175.216, 677.575 175.810, 674 176.471 M 324.869 177.962 C 326.172 179.090, 329.772 180.701, 332.869 181.540 C 335.966 182.380, 342.775 184.687, 348 186.666 C 365.070 193.133, 365.337 193.203, 368.430 192.027 C 371.229 190.963, 371.241 190.923, 369.382 188.868 C 364.773 183.771, 345.793 177.527, 332 176.570 L 322.500 175.910 324.869 177.962 M 545.584 181.791 C 545.937 183.751, 545.687 185.672, 544.966 186.541 C 544.300 187.343, 544.051 188, 544.413 188 C 544.774 188, 544.560 188.954, 543.935 190.121 C 543.178 191.535, 543.157 192.021, 543.873 191.579 C 545.866 190.347, 547.240 183.722, 546.067 181 C 545.075 178.697, 545.037 178.760, 545.584 181.791 M 742.890 193.468 C 725.502 201.076, 717.262 209.400, 715.503 221.133 C 714.872 225.336, 715.082 226.024, 718.011 229.360 C 719.769 231.362, 721.576 233, 722.026 233 C 722.476 233, 725.371 228.290, 728.459 222.533 C 734.523 211.228, 738.359 206, 740.589 206 C 743.058 206, 742.144 210.630, 738.179 218.202 C 736.077 222.216, 733.283 228.115, 731.969 231.312 C 729.927 236.282, 729.792 237.257, 731.040 238.046 C 733.660 239.703, 738.462 239.050, 742.166 236.533 C 749.838 231.320, 752.781 222.816, 753.687 203.250 C 754.406 187.690, 754.957 188.189, 742.890 193.468 M 255.293 203.750 C 255.928 217.343, 257.496 223.705, 261.838 230.308 C 264.718 234.687, 271.908 239.300, 275.112 238.824 C 279.706 238.142, 279.573 235.900, 274.259 224.402 C 268.984 212.987, 267.120 207, 268.843 207 C 270.766 207, 277.049 215.444, 281.258 223.685 C 283.739 228.544, 286.123 231.986, 287 231.980 C 289.685 231.961, 291.128 230.364, 292.047 226.396 C 293.944 218.200, 287.465 205.847, 277.782 199.201 C 273.207 196.061, 260.252 191, 256.789 191 C 254.746 191, 254.712 191.291, 255.293 203.750 M 427.367 197.772 C 422.814 201.460, 421.943 205.970, 424.672 211.722 C 428.664 220.134, 438.572 219.017, 441.033 209.878 C 443.517 200.652, 434.105 192.315, 427.367 197.772 M 569.455 199.455 C 564.767 204.142, 567.079 213.882, 573.519 216.572 C 578.375 218.601, 581.633 217.085, 584.023 211.681 C 587.522 203.772, 583.697 197, 575.732 197 C 573.006 197, 571.205 197.705, 569.455 199.455 M 426.715 238.355 C 420.550 252.584, 419.731 256.721, 420.162 271.459 C 420.526 283.930, 420.721 284.992, 423.804 291.253 C 427.600 298.964, 434.846 306.038, 440.764 307.811 C 442.947 308.465, 447.276 309, 450.385 309 L 456.038 309 455.406 306.250 C 454.642 302.925, 449.132 288.767, 443.860 276.578 C 439.674 266.900, 439.127 263.549, 441.582 262.607 C 443.766 261.769, 443.676 261.736, 446.010 264.241 C 449.265 267.734, 454.213 277.262, 460.563 292.261 L 466.388 306.022 469.346 301.271 C 473.688 294.294, 475.022 290.573, 475.670 283.626 C 477.540 263.609, 465.299 246.580, 440.826 235.152 L 430.244 230.211 426.715 238.355 M 573.743 232.420 C 571.676 233.648, 570.312 234.979, 570.712 235.379 C 571.112 235.779, 570.748 235.841, 569.904 235.517 C 569.060 235.193, 567.274 235.407, 565.935 235.992 C 563.677 236.979, 563.664 237.025, 565.750 236.622 C 568.520 236.087, 568.748 237.628, 566.026 238.492 C 564.941 238.836, 561.800 240.668, 559.046 242.562 C 556.292 244.457, 553.127 246.146, 552.014 246.316 C 546.660 247.133, 538.131 256.659, 534.673 265.684 C 532.382 271.662, 531.612 281.528, 532.893 288.500 C 533.971 294.370, 539.054 305.727, 540.397 305.269 C 540.770 305.141, 545.070 296.988, 549.953 287.149 C 554.836 277.311, 560.266 267.628, 562.019 265.631 C 568.661 258.067, 572.386 263.110, 567.090 272.495 C 565.374 275.534, 562.669 281.279, 561.079 285.261 C 559.488 289.242, 556.795 295.425, 555.094 299 C 550.428 308.808, 550.617 309.314, 558.750 308.795 C 576.239 307.680, 588.299 294.444, 589.665 274.865 C 589.986 270.264, 589.757 263.350, 589.156 259.500 C 587.942 251.716, 580.064 229.991, 578.500 230.111 C 577.950 230.154, 575.809 231.193, 573.743 232.420 M 443 239.023 C 453.695 244.607, 453 244.329, 453 243.029 C 453 241.911, 437.076 233.984, 434.927 234.032 C 434.142 234.049, 437.775 236.295, 443 239.023 M 195.500 236 C 185.547 236.498, 185.501 236.512, 185.759 239 C 185.902 240.375, 187.367 249.150, 189.017 258.500 C 191.559 272.912, 192.639 276.773, 196.112 283.863 C 207.840 307.804, 233.895 320.213, 256.198 312.477 C 260.084 311.129, 261.092 310.250, 262.038 307.385 C 263.458 303.081, 262.851 302.256, 254.624 297.311 C 248.069 293.370, 247.052 292.610, 228.154 277.521 C 221.364 272.099, 215.565 267.029, 215.267 266.254 C 214.970 265.479, 215.433 264.138, 216.298 263.274 C 217.650 261.922, 218.330 261.885, 221.184 263.011 C 224.913 264.483, 242.450 275.735, 254.397 284.321 C 264.152 291.332, 272.726 295.674, 274.101 294.299 C 274.645 293.755, 275.345 290.202, 275.656 286.405 C 276.354 277.875, 274.450 270.006, 269.824 262.314 C 265.911 255.807, 256.361 246.648, 254.309 247.435 C 253.532 247.733, 253.119 247.616, 253.392 247.175 C 254.354 245.618, 240.860 239.881, 235.216 239.447 C 232.203 239.216, 229.185 238.569, 228.510 238.009 C 226.789 236.580, 207.441 235.403, 195.500 236 M 783.215 237.526 C 779.209 238.270, 773.359 239.616, 770.215 240.519 C 762.676 242.682, 751.705 248.790, 752.348 250.465 C 752.620 251.172, 751.752 252.247, 750.421 252.854 C 748.622 253.674, 748 253.661, 748 252.804 C 748 252.170, 746.866 252.716, 745.481 254.018 C 737.853 261.184, 732.392 275.834, 733.270 286.773 C 733.550 290.260, 734.051 293.384, 734.383 293.716 C 736.524 295.857, 752.855 286.369, 773.385 271.057 C 785.054 262.354, 790.632 259.449, 792.576 261.063 C 796.088 263.978, 793.613 267.081, 775.507 282.471 C 770.561 286.675, 762.541 292.835, 757.686 296.161 C 752.830 299.486, 748.624 302.817, 748.338 303.562 C 747.354 306.127, 749.976 311.668, 752.779 312.947 C 754.276 313.630, 758.650 314.427, 762.500 314.718 C 775.398 315.693, 788.677 310.696, 799.472 300.805 C 809.587 291.536, 814.752 282.477, 818.581 267.290 C 820.329 260.358, 822.974 239.124, 822.308 237.372 C 821.681 235.722, 792.314 235.838, 783.215 237.526 M 712.767 246.750 C 711.919 247.713, 709.771 251.425, 707.994 255 C 703.592 263.858, 696.634 273.009, 687.311 282.205 C 681.337 288.098, 676.324 291.743, 665.994 297.705 C 648.959 307.537, 642.551 310.742, 637.438 311.987 C 633.038 313.058, 631.168 314.596, 627.694 320 C 624.706 324.648, 613.300 333.137, 607.001 335.403 C 601.434 337.404, 600 339.209, 600 344.212 C 600 349.300, 602.386 352, 606.882 352 C 611.002 352, 613.531 349.944, 616.405 344.257 C 619.037 339.050, 631.058 330.971, 652.500 319.998 C 663.500 314.370, 676.160 307.348, 680.634 304.396 C 690.031 298.194, 701.879 287.446, 707.745 279.803 C 713.539 272.253, 721.816 258.310, 723.010 254.089 C 723.949 250.767, 723.799 250.296, 720.996 247.750 C 717.502 244.576, 714.956 244.267, 712.767 246.750 M 287.750 247.392 C 285.424 249.158, 285.530 254.369, 288.004 259.819 C 291.685 267.930, 301.042 281.138, 307.895 287.897 C 315.484 295.381, 333.197 307.586, 345.500 313.809 C 349.900 316.034, 357.100 320.150, 361.500 322.955 C 370.891 328.942, 375.939 330.629, 379.246 328.888 C 382.344 327.256, 382.967 326.082, 382.985 321.839 C 383.003 317.422, 378.953 313.457, 373.351 312.406 C 368.415 311.480, 346.518 300.111, 335 292.494 C 319.109 281.985, 306.948 268.719, 300.554 254.920 C 299.280 252.170, 297.440 249.038, 296.464 247.960 C 294.432 245.715, 290.313 245.446, 287.750 247.392 M 495.547 266.093 C 491.667 269.499, 489.379 275.391, 490.383 279.391 C 490.738 280.806, 492.344 283.461, 493.951 285.292 L 496.874 288.620 496.345 519.106 L 495.817 749.592 499.519 754.046 C 501.556 756.496, 503.582 758.637, 504.021 758.803 C 504.461 758.970, 505.986 757.850, 507.410 756.314 L 510 753.520 510.224 662.010 C 510.347 611.680, 510.459 507.040, 510.474 429.477 L 510.500 288.454 512.747 285.597 C 516.607 280.686, 517.399 275.690, 515.129 270.559 C 511.573 262.520, 502.082 260.355, 495.547 266.093 M 607.500 289.645 C 599.132 301.431, 595.018 306.082, 575.341 326 C 538.064 363.734, 528.895 378.064, 521.591 410 C 519.035 421.177, 517.690 440.994, 518.940 449.053 C 520.142 456.801, 523.403 464.343, 525.304 463.771 C 525.962 463.573, 527.737 460.988, 529.250 458.026 C 531.705 453.220, 532 451.573, 532 442.699 C 532 423.141, 536.718 402.137, 544.623 386.500 C 552.012 371.884, 558.953 363.059, 580.111 341.386 C 604.576 316.326, 621 296.426, 621 291.845 C 621 289.660, 615.348 283.998, 613.173 284.005 C 612.253 284.008, 609.700 286.546, 607.500 289.645 M 390.455 287.455 C 387.345 290.564, 387.371 291.041, 391.010 297.860 C 395.236 305.775, 408.656 321.612, 427.991 341.500 C 437.082 350.850, 447.401 362.325, 450.923 367 C 458.811 377.472, 467.011 394.327, 470.471 407.185 C 473.344 417.858, 475.988 436.804, 476.022 446.962 C 476.066 459.997, 483.371 468.984, 487.474 461.050 C 489.518 457.098, 489.526 434.085, 487.488 420.500 C 482.004 383.934, 470.427 363.546, 435.080 328.206 C 421.652 314.781, 413.735 305.659, 400.403 288.250 C 397.365 284.282, 393.904 284.005, 390.455 287.455 M 434 287.430 C 434 287.705, 434.900 288.411, 436 289 C 437.100 289.589, 438 289.845, 438 289.570 C 438 289.295, 437.100 288.589, 436 288 C 434.900 287.411, 434 287.155, 434 287.430 M 173.073 290.635 C 170.384 294.052, 170.445 297.143, 173.250 299.711 C 177.214 303.339, 179.842 303.526, 183.094 300.410 C 186.375 297.266, 186.676 295.208, 184.474 290.950 C 183.180 288.448, 182.356 288, 179.047 288 C 176.023 288, 174.679 288.593, 173.073 290.635 M 823.631 289.855 C 822.430 291.182, 821.968 293.032, 822.184 295.652 C 822.453 298.927, 823.051 299.795, 826.201 301.482 L 829.902 303.463 832.701 301.380 C 836.611 298.468, 837.841 294.591, 835.935 291.182 C 834.706 288.984, 833.620 288.446, 829.915 288.203 C 826.451 287.976, 824.983 288.362, 823.631 289.855 M 272.607 302.582 C 272.273 303.452, 272 306.136, 272 308.547 C 272 313.723, 271.704 313.515, 286.719 318.914 C 311.349 327.769, 327.809 335.218, 344.671 345.136 C 373.830 362.290, 393.003 379.160, 415.414 407.383 C 446.058 445.975, 463.325 487.356, 465.603 527.661 C 466.281 539.668, 465.485 553, 464.089 553 C 463.675 553, 461.885 550.760, 460.112 548.022 C 455.931 541.571, 443.573 528.457, 436.616 523.090 C 427.907 516.370, 410.581 506.369, 401.750 502.964 C 385.613 496.741, 377.968 495.576, 353 495.540 C 338.384 495.519, 327.872 495.979, 323 496.853 C 314.291 498.416, 293.724 505.093, 286.783 508.610 C 282.436 510.813, 282 511.355, 282 514.557 C 282 517.923, 285.003 525.266, 286.846 526.405 C 287.327 526.702, 293.521 524.974, 300.610 522.566 C 322.696 515.061, 331.706 513.494, 352.500 513.540 C 367.890 513.574, 371.049 513.847, 374.286 515.421 C 376.368 516.433, 377.914 517.419, 377.721 517.612 C 377.528 517.805, 372.391 518.617, 366.305 519.416 C 328.323 524.407, 295.937 549.170, 284.492 581.973 C 281.878 589.464, 278.972 605.188, 278.841 612.544 C 278.528 630.213, 279.132 641.381, 280.592 644.874 C 282.506 649.456, 286.810 654, 289.236 654 C 293.991 654, 296.840 637.680, 293.364 630.354 C 291.992 627.464, 291.819 624.607, 292.296 612.703 C 292.941 596.581, 294.249 590.887, 299.923 579.500 C 313.720 551.811, 337.584 536.847, 372.241 534.154 C 381.601 533.426, 383.512 532.984, 384.884 531.228 C 385.773 530.091, 388.429 528.170, 390.786 526.960 C 394.679 524.962, 395.483 524.875, 399.553 526.015 C 402.017 526.705, 406.138 528.604, 408.711 530.236 C 414.030 533.609, 413.939 533.752, 404.410 537.031 C 396.866 539.626, 387.090 545.709, 385.756 548.637 C 384.813 550.707, 385.054 551.447, 387.507 554.007 C 391.671 558.354, 393.311 558.500, 400.057 555.129 C 403.374 553.472, 409.483 551.545, 413.632 550.848 C 419.844 549.804, 421.596 549.081, 423.558 546.749 C 425.825 544.055, 426.077 543.988, 428.769 545.380 C 435.906 549.071, 447.982 564.690, 452.727 576.366 C 456.248 585.032, 458.913 596.098, 459.982 606.500 C 460.491 611.450, 461.001 637.838, 461.116 665.140 L 461.325 714.780 466.622 719.007 C 469.535 721.332, 474.444 725.881, 477.530 729.117 C 480.617 732.353, 483.348 735, 483.599 735 C 483.851 735, 483.916 683.813, 483.744 621.250 L 483.430 507.500 480.637 496.134 C 470.571 455.178, 449.245 417.793, 415.642 382.194 C 382.234 346.803, 341.515 321.741, 289.249 304.401 C 277.920 300.643, 273.535 300.163, 272.607 302.582 M 715.500 306.833 C 706.150 310.001, 694.900 314.308, 690.500 316.402 C 661.273 330.313, 653.184 334.576, 642.500 341.699 C 624.276 353.848, 613.443 362.655, 598.154 377.751 C 562.582 412.874, 537.447 454.235, 528.555 492.283 C 522.897 516.491, 523 513.941, 523 629.369 C 523 688.016, 523.337 736, 523.750 735.999 C 524.163 735.999, 527.151 733.034, 530.391 729.411 C 533.631 725.788, 538.537 721.041, 541.294 718.862 L 546.305 714.901 546.113 670.700 C 546.007 646.390, 546.375 621.098, 546.930 614.496 C 549.327 586.007, 559.212 563.025, 575.349 548.422 C 581.498 542.857, 583 542.045, 583 544.284 C 583 546.353, 588.017 548.735, 595.004 549.985 C 599.499 550.789, 603.100 552.241, 606.694 554.701 L 611.889 558.256 615.694 555.294 C 617.788 553.665, 620.315 552.036, 621.311 551.674 C 623.059 551.039, 623.059 550.906, 621.311 547.866 C 618.838 543.566, 613.809 540.077, 604.158 535.967 C 599.680 534.060, 596.021 532.275, 596.025 532 C 596.057 530.118, 625.057 517.391, 626.356 518.689 C 626.582 518.915, 626.380 520.765, 625.907 522.800 C 625.435 524.835, 625.037 528.120, 625.024 530.099 L 625 533.698 637.750 534.286 C 668.606 535.709, 693.504 549.948, 707.195 574 C 716.424 590.214, 720.930 620.313, 715.828 631.667 C 712.050 640.075, 713.468 655, 718.045 655 C 720.860 655, 725.618 650.411, 727.387 645.991 C 729.469 640.788, 731.490 624.590, 731.269 614.878 C 731.061 605.742, 728.575 589.421, 726.337 582.500 C 725.448 579.750, 723.149 574.350, 721.228 570.500 C 706.141 540.256, 679.645 523.734, 638 518.600 C 628.495 517.429, 627.767 517.197, 630.320 516.151 C 636.165 513.757, 647.602 512.763, 663 513.310 C 680.337 513.927, 688.500 515.508, 707.500 521.929 C 714.100 524.160, 720.226 525.989, 721.113 525.993 C 722.108 525.997, 723.964 523.484, 725.959 519.431 C 729.645 511.943, 729.739 512.167, 721 507.600 C 699.131 496.170, 660.780 490.938, 635.500 495.934 C 615.786 499.831, 596.661 507.061, 583 515.781 C 571.211 523.306, 551.630 541.605, 546.527 549.865 C 542.232 556.816, 541.464 554.549, 541.721 535.693 C 541.992 515.855, 544.047 503.697, 550.530 483.564 C 555.921 466.825, 568.968 439.807, 578.526 425.590 C 592.057 405.464, 617.652 377.967, 635.504 364.378 C 659.591 346.042, 693.926 328.314, 725.267 318.029 C 735.818 314.566, 738 313.114, 738 309.554 C 738 304.060, 736.787 300.999, 734.625 301.036 C 733.456 301.055, 724.850 303.664, 715.500 306.833 M 164.760 314.610 C 152.694 317.201, 153.011 316.306, 160.463 326.724 C 169.689 339.620, 177.487 345.620, 185.520 346.004 C 193.694 346.394, 195.881 345.971, 198.923 343.411 C 200.615 341.987, 202 340.502, 202 340.112 C 202 339.721, 197.387 337.271, 191.750 334.667 C 186.113 332.064, 180.375 329.058, 179 327.989 L 176.500 326.044 180.859 326.022 C 183.257 326.010, 188.999 326.992, 193.620 328.204 C 201.275 330.211, 202.162 330.267, 203.601 328.828 C 205.014 327.415, 205.023 326.947, 203.685 324.374 C 198.520 314.444, 183.307 310.628, 164.760 314.610 M 815.500 315.496 C 808.292 318.437, 803.748 322.993, 804.191 326.831 C 804.616 330.505, 807.100 330.644, 817.216 327.558 C 826.893 324.607, 832 324.244, 832 326.509 C 832 328.044, 824.498 331.965, 813.750 336.048 C 809.023 337.844, 808 338.646, 808 340.559 C 808 344.244, 811.570 346, 819.063 346 C 828.651 346, 836.319 341.984, 843.621 333.136 C 849.621 325.866, 854.490 318.157, 853.626 317.293 C 852.101 315.768, 836.529 313.018, 829.500 313.032 C 823.338 313.044, 820.121 313.610, 815.500 315.496 M 469.500 318.719 C 464.831 319.857, 461 325.987, 461 332.320 C 461 336.398, 464.560 342.012, 468.281 343.802 C 471.166 345.189, 471.251 345.409, 473.435 357.126 C 475.568 368.569, 476.801 372.510, 478.823 374.340 C 480.542 375.895, 480.803 375.838, 483.077 373.410 C 485.220 371.122, 485.479 369.995, 485.323 363.661 C 485.225 359.723, 484.259 353.413, 483.177 349.641 L 481.208 342.782 483.604 339.252 C 487.092 334.111, 486.857 328.496, 482.956 323.763 C 480.411 320.675, 474.415 317.588, 472 318.122 C 471.725 318.182, 470.600 318.451, 469.500 318.719 M 530.020 319.752 C 525.692 321.926, 522 327.296, 522 331.416 C 522 333.132, 523.138 336.210, 524.529 338.257 L 527.057 341.978 525.529 351.478 C 523.185 366.042, 523.455 371.606, 526.733 376.336 L 529.465 380.279 531.249 376.188 C 533.514 370.994, 534.738 364.523, 535.591 353.222 L 536.267 344.267 539.900 342.664 C 549.680 338.349, 549.548 324.422, 539.684 319.943 C 534.524 317.601, 534.309 317.597, 530.020 319.752 M 780.388 326.959 C 779.227 327.440, 777.270 329.108, 776.041 330.667 C 774.241 332.947, 773.902 334.371, 774.304 337.967 C 775.762 351.011, 793 349.272, 793 336.082 C 793 330.218, 785.542 324.824, 780.388 326.959 M 220.888 328.500 C 215.062 331.666, 214.641 340.837, 220.111 345.440 C 224.076 348.776, 227.213 348.675, 231.234 345.082 C 234.038 342.577, 234.500 341.504, 234.500 337.500 C 234.500 333.496, 234.038 332.423, 231.234 329.918 C 227.650 326.715, 224.872 326.334, 220.888 328.500 M 265.071 328.738 C 260.008 331.339, 257.656 335.112, 257.596 340.725 C 257.476 352.039, 265.758 358.704, 275.387 355.043 C 280.637 353.047, 283.803 340.387, 280.600 334.194 C 277.511 328.221, 270.721 325.835, 265.071 328.738 M 734.035 328.274 C 724.372 331.692, 723.346 346.774, 732.325 353.412 C 736.065 356.176, 744.020 356.184, 747.113 353.427 C 753.586 347.659, 753.424 333.899, 746.834 329.652 C 743.427 327.457, 737.998 326.872, 734.035 328.274 M 394.982 338.750 C 392.190 342.300, 392.866 347.574, 396.522 350.750 C 404.686 357.844, 414.421 347.408, 407.411 339.077 C 403.866 334.864, 398.157 334.714, 394.982 338.750 M 159.077 353.589 C 155.198 356.852, 154.877 361.596, 158.314 364.826 C 164.586 370.718, 174.286 363.932, 170.984 355.962 C 168.698 350.442, 163.942 349.495, 159.077 353.589 M 841.825 352.038 C 839.476 353.409, 837.623 359.426, 838.846 361.712 C 842.214 368.005, 849.077 368.779, 852.305 363.230 C 856.531 355.966, 848.957 347.877, 841.825 352.038 M 279.815 355.035 C 277.788 356.105, 275.858 357.420, 275.527 357.956 C 274.793 359.144, 276.900 363.362, 287.285 381.500 C 301.417 406.182, 312.043 420.152, 331.445 439.557 C 342.381 450.495, 360.372 465.301, 368.793 470.295 C 370.604 471.369, 371.954 472.352, 371.793 472.479 C 371.237 472.919, 354.447 471.067, 338.750 468.836 L 323 466.597 323 459.480 C 323 448.473, 320.792 442.456, 314.503 436.324 C 306.641 428.658, 299.741 427.292, 287.684 431.016 C 282.371 432.657, 280.351 433.928, 276.828 437.847 C 269.639 445.844, 266.713 452.236, 266.203 461.060 L 265.761 468.697 246.959 469.372 L 228.158 470.047 224.439 467.523 C 219.230 463.988, 214.871 464.176, 211.589 468.077 C 210.165 469.769, 209 472.041, 209 473.126 C 209 476.399, 211.853 480.873, 214.967 482.483 C 218.709 484.418, 219.998 484.390, 222.964 482.312 C 225.064 480.842, 228.251 480.640, 247.757 480.741 L 270.140 480.857 274.848 485.261 C 280.687 490.722, 287.386 493.442, 293.345 492.770 C 299.769 492.046, 307.779 488, 313.858 482.407 L 319.217 477.478 330.358 480.269 C 336.486 481.804, 349.140 484.206, 358.479 485.607 L 375.458 488.153 377.229 485.966 C 378.203 484.763, 379 482.928, 379 481.889 C 379 479.248, 381.497 479.484, 389.612 482.894 C 417.439 494.586, 431.440 503.225, 446.784 518.171 C 450.790 522.073, 454.390 524.942, 454.784 524.547 C 455.178 524.152, 455.500 520.244, 455.500 515.864 L 455.500 507.900 446.789 499.700 L 438.077 491.500 437.779 483 C 437.529 475.894, 436.956 473.389, 434.283 467.730 C 430.644 460.023, 424.818 452.153, 416.428 443.611 L 410.643 437.721 407.322 441.346 C 405.495 443.340, 404.009 445.540, 404.021 446.235 C 404.033 446.931, 407.621 451.960, 411.994 457.411 C 419.519 466.789, 421.807 471.208, 423.471 479.575 L 424.082 482.649 402.291 471.928 C 374.244 458.129, 357.439 446.481, 339.101 428.128 C 320.392 409.404, 310.582 396.045, 292.078 364.091 C 288.545 357.991, 285.170 353.020, 284.578 353.044 C 283.985 353.069, 281.842 353.964, 279.815 355.035 M 721.648 356.250 C 720.299 358.038, 717.485 362.650, 715.394 366.500 C 710.083 376.281, 698.579 394.535, 693.966 400.500 C 691.839 403.250, 685.852 410.299, 680.659 416.164 C 658.349 441.369, 638.941 456.385, 609.264 471.405 C 600.884 475.646, 591.713 480.674, 588.883 482.579 L 583.738 486.041 584.384 481.771 C 585.356 475.357, 591.196 464.469, 598.476 455.500 C 602.048 451.100, 604.977 447.026, 604.985 446.446 C 605.002 445.251, 598.820 439, 597.621 439 C 595.935 439, 586.517 449.943, 580.919 458.404 C 572.211 471.567, 568.358 483.063, 571 488 C 572.146 490.141, 571.604 490.875, 562.604 499.394 C 553.742 507.782, 552.970 508.816, 552.822 512.500 C 552.623 517.443, 553.068 525.364, 553.575 525.892 C 553.781 526.107, 558.325 522.102, 563.671 516.991 C 575.508 505.675, 589.175 496.550, 603.369 490.487 C 618.171 484.164, 626.268 482.911, 629.804 486.395 C 630.859 487.434, 632.030 487.440, 635.951 486.423 C 638.614 485.732, 647.253 484.439, 655.147 483.550 C 674.249 481.398, 680.534 480.229, 685.459 477.914 L 689.578 475.978 695.161 481.386 C 707.982 493.804, 723.450 495.272, 734.322 485.102 L 739.242 480.500 762.371 480.836 C 780.140 481.094, 786.013 481.499, 787.715 482.586 C 792.301 485.514, 797.947 483.938, 800.490 479.020 C 802.791 474.569, 802.364 471.210, 799.077 467.923 C 795.521 464.367, 789.876 463.968, 786 467 C 783.744 468.765, 781.831 468.958, 766.375 468.978 C 744.459 469.006, 743 468.732, 743 464.585 C 743 459.029, 740.029 449.649, 736.723 444.772 C 726.319 429.419, 705.871 424.885, 694.983 435.517 C 689.031 441.328, 686.538 447.878, 686.533 457.718 L 686.529 465.935 682.015 466.899 C 672.443 468.943, 636.894 472.980, 637.530 471.951 C 637.755 471.588, 642.340 468.332, 647.719 464.718 C 653.099 461.103, 659.300 456.416, 661.500 454.303 C 663.700 452.189, 668.502 447.679, 672.172 444.279 C 694.566 423.534, 712.306 399.935, 729.012 368.669 C 731.755 363.534, 734 358.521, 734 357.527 C 734 355.016, 731.099 353.070, 727.301 353.032 C 724.841 353.007, 723.535 353.751, 721.648 356.250 M 323.396 355.163 C 331.709 356.111, 342.070 359.636, 342.759 361.750 C 343.375 363.638, 340.431 363.270, 332.198 360.428 C 327.732 358.887, 322.195 357.784, 318.382 357.678 C 314.059 357.557, 312.016 357.099, 312.009 356.250 C 312.004 355.563, 310.845 355, 309.433 355 C 307.470 355, 306.979 355.412, 307.349 356.750 C 312.569 375.639, 314.150 379.280, 319.417 384.547 C 325.080 390.210, 329.273 391.986, 337 391.993 C 342.128 391.997, 348.500 389.231, 348.500 387 C 348.500 386.024, 345.879 384.619, 341 382.978 C 330.746 379.530, 330.696 379.489, 332.497 376.007 C 333.316 374.423, 334.373 372.887, 334.846 372.595 C 335.320 372.302, 338.810 373.387, 342.604 375.004 C 352.460 379.208, 353.381 379.070, 352.751 373.482 C 352.084 367.564, 348.009 361.556, 342.893 358.945 C 337.696 356.294, 326.991 354.001, 320.500 354.148 C 316.247 354.245, 316.679 354.396, 323.396 355.163 M 673.299 355.106 C 671.539 355.615, 669.825 356.475, 669.490 357.016 C 668.713 358.273, 669.630 358.268, 671.994 357.003 C 673.018 356.455, 676.926 355.612, 680.678 355.130 L 687.500 354.253 682 354.217 C 678.975 354.197, 675.060 354.597, 673.299 355.106 M 700.080 355.500 C 700.035 356.070, 697.901 356.354, 695.120 356.162 C 688.466 355.700, 679.362 358.204, 670.264 362.997 C 666.085 365.199, 662.237 367, 661.713 367 C 661.188 367, 662.500 364.863, 664.627 362.250 L 668.495 357.500 664.217 360.858 C 659.622 364.465, 657.652 367.576, 656.660 372.788 C 655.770 377.467, 657.801 377.800, 664.643 374.094 C 667.785 372.392, 670.906 371, 671.580 371 C 673.327 371, 675.262 376.979, 674.005 378.494 C 673.459 379.152, 671.096 380.520, 668.756 381.533 C 660.272 385.205, 658.847 388.202, 664.468 390.551 C 669.235 392.543, 673.944 392.367, 680.387 389.956 C 687.126 387.435, 692.668 382.170, 696.154 374.976 C 698.959 369.188, 701.590 358.091, 700.692 355.838 C 700.398 355.102, 700.123 354.950, 700.080 355.500 M 423.150 360.527 C 419.384 363.696, 418.434 367.709, 420.359 372.316 C 423.472 379.768, 432.790 380.175, 436.490 373.020 C 439.552 367.097, 437.834 362.482, 431.316 359.125 C 428.073 357.455, 426.475 357.729, 423.150 360.527 M 573.560 361.131 C 569.847 364.052, 568.679 367.496, 570.021 371.562 C 571.306 375.456, 574.808 378, 578.883 378 C 583.202 378, 584.898 377.098, 586.537 373.928 C 591.620 364.099, 581.932 354.546, 573.560 361.131 M 228.762 363.707 C 230.006 363.946, 231.806 363.937, 232.762 363.687 C 233.718 363.437, 232.700 363.241, 230.500 363.252 C 228.300 363.263, 227.518 363.468, 228.762 363.707 M 769.500 363.713 C 768.400 363.978, 767.050 364.627, 766.500 365.156 C 765.849 365.782, 766.052 365.908, 767.081 365.517 C 767.950 365.186, 771.550 364.542, 775.081 364.085 C 781.349 363.273, 781.383 363.253, 776.500 363.243 C 773.750 363.237, 770.600 363.448, 769.500 363.713 M 786.762 363.707 C 788.006 363.946, 789.806 363.937, 790.762 363.687 C 791.718 363.437, 790.700 363.241, 788.500 363.252 C 786.300 363.263, 785.518 363.468, 786.762 363.707 M 214.750 364.662 C 215.438 364.940, 216.563 364.940, 217.250 364.662 C 217.938 364.385, 217.375 364.158, 216 364.158 C 214.625 364.158, 214.063 364.385, 214.750 364.662 M 222.500 365.730 C 215.527 366.475, 200.036 370.531, 194.112 373.162 C 190.598 374.723, 187.172 376, 186.499 376 C 185.826 376, 183.664 377.238, 181.696 378.750 C 176.643 382.632, 168 387.973, 168 387.213 C 168 386.862, 169.238 385.503, 170.750 384.193 L 173.500 381.811 170 383.901 C 168.075 385.050, 166.624 386.476, 166.775 387.070 C 166.926 387.663, 166.619 387.882, 166.092 387.557 C 165.065 386.922, 153.567 396.710, 150.017 401.240 C 148.765 402.839, 148.187 404.506, 148.630 405.240 C 149.049 405.933, 152.885 410.550, 157.156 415.500 C 182.405 444.762, 214.815 459.148, 240.448 452.472 C 248.926 450.263, 259.505 444.370, 263.849 439.434 C 267.792 434.955, 274 424.001, 274 421.524 C 274 418.105, 252.736 414.682, 220.520 412.915 C 207.995 412.228, 201.283 411.470, 200.785 410.687 C 199.777 409.101, 199.826 404.823, 200.872 403.173 C 202.016 401.369, 221.238 399.692, 231.500 400.500 C 248.245 401.820, 267.778 405.059, 274.468 407.626 C 275.638 408.075, 276 407.492, 276 405.156 C 276 400.465, 273.966 391.919, 271.856 387.750 C 269.587 383.264, 268.734 382.834, 270.292 386.962 C 270.907 388.591, 271.179 390.155, 270.896 390.437 C 270.613 390.720, 268.092 390.680, 265.293 390.348 L 260.204 389.746 260.137 384.134 C 260.100 381.048, 259.604 378.368, 259.035 378.178 C 258.466 377.989, 258 377.196, 258 376.417 C 258 375.637, 257.550 375, 257 375 C 256.450 375, 256 374.401, 256 373.668 C 256 372.172, 249.214 369.749, 247.680 370.697 C 247.136 371.034, 246.971 370.856, 247.313 370.303 C 248.696 368.064, 231.065 364.814, 222.500 365.730 M 774 365.687 C 759.502 368.089, 745 377.598, 745 384.703 C 745 386.666, 744.494 388.006, 743.750 388.015 C 742.917 388.026, 743 388.354, 744 389 C 745.165 389.753, 744.872 389.973, 742.691 389.985 C 741.076 389.993, 740.145 390.425, 740.500 391 C 741.060 391.906, 739.513 392.377, 736.307 392.278 C 734.982 392.237, 733 400.193, 733 405.549 C 733 407.447, 733.155 409, 733.343 409 C 733.532 409, 736.277 408.109, 739.443 407.020 C 750.803 403.111, 760.823 401.820, 784.069 401.270 C 810.369 400.648, 811 400.792, 811 407.442 L 811 411.813 801.750 412.348 C 769.835 414.195, 759.297 415.141, 749.500 417.041 C 743.450 418.214, 737.973 419.610, 737.330 420.143 C 734.350 422.611, 743.124 438.904, 750.189 444.022 C 779.008 464.898, 821.854 452.053, 854.762 412.672 L 861.303 404.844 852.401 395.836 C 843.772 387.105, 832.937 378.667, 830.353 378.667 C 829.657 378.667, 829.284 378.350, 829.523 377.963 C 830.185 376.892, 813.996 369.787, 812.342 370.422 C 811.459 370.761, 811.160 370.551, 811.573 369.881 C 812.031 369.141, 811.521 369.017, 810 369.500 C 808.314 370.035, 807.947 369.894, 808.539 368.937 C 809.105 368.021, 808.842 367.847, 807.608 368.320 C 806.662 368.683, 802.547 368.084, 798.463 366.990 C 791.554 365.139, 780.773 364.564, 774 365.687 M 834.500 383 C 834.840 383.550, 835.316 384, 835.559 384 C 835.802 384, 836 383.550, 836 383 C 836 382.450, 835.523 382, 834.941 382 C 834.359 382, 834.160 382.450, 834.500 383 M 839.627 386.471 C 839.948 387.306, 840.598 387.749, 841.072 387.455 C 841.546 387.162, 842.508 387.840, 843.208 388.961 C 843.908 390.083, 844.893 391, 845.396 391 C 846.573 391, 843.059 387.102, 840.784 385.884 C 839.429 385.159, 839.174 385.289, 839.627 386.471 M 847.020 393.524 C 847.716 394.362, 848.491 394.842, 848.743 394.591 C 849.436 393.897, 848.027 392, 846.819 392 C 846.155 392, 846.231 392.574, 847.020 393.524 M 451.315 395.007 C 447.650 396.484, 445.889 401.941, 447.621 406.455 C 448.658 409.157, 453.841 411.252, 457.697 410.529 C 466.403 408.896, 464.863 393.983, 456 394.095 C 454.625 394.113, 452.517 394.523, 451.315 395.007 M 546.282 396.250 C 545.146 397.488, 543.907 399.962, 543.529 401.748 C 542.945 404.509, 543.292 405.446, 545.844 407.998 C 549.652 411.806, 553.723 411.945, 557.923 408.411 C 564.353 403.001, 560.678 394, 552.039 394 C 549.491 394, 547.709 394.696, 546.282 396.250 M 638.500 400.722 C 636.300 401.563, 630.250 403.850, 625.055 405.804 C 619.044 408.066, 614.168 410.656, 611.646 412.929 L 607.682 416.500 608.196 413.780 C 608.874 410.200, 607.197 411.285, 605.398 415.590 C 603.397 420.378, 603.595 428.278, 605.783 430.981 L 607.566 433.183 615.962 426.091 C 624.677 418.730, 625.445 418.293, 626.540 420.065 C 628.278 422.876, 625.775 428.035, 619.965 433.615 C 616.684 436.766, 614 440.142, 614 441.116 C 614 445.810, 624.036 447.538, 631.500 444.129 C 635.758 442.184, 642.861 435.104, 645.310 430.364 C 648.740 423.726, 652.656 401.119, 650.610 399.765 C 648.836 398.591, 642.838 399.065, 638.500 400.722 M 364.813 400.683 C 365.534 400.972, 366.397 400.936, 366.729 400.604 C 367.061 400.272, 366.471 400.036, 365.417 400.079 C 364.252 400.127, 364.015 400.364, 364.813 400.683 M 382.293 401.455 C 391.521 403.404, 400 408.766, 400 412.653 C 400 413.394, 400.354 414, 400.787 414 C 401.220 414, 401.640 414.874, 401.721 415.943 C 401.824 417.307, 401.410 417.711, 400.333 417.297 C 399.489 416.974, 398.444 417.282, 398.011 417.982 C 396.860 419.845, 395.100 418.335, 395.708 416.007 C 396.069 414.629, 395.194 413.026, 392.864 410.799 C 386.425 404.642, 383.665 403.728, 370.317 403.334 C 363.616 403.136, 357.881 403.383, 357.572 403.884 C 356.695 405.303, 359.760 421.282, 362.118 427.586 C 366.201 438.499, 376.110 445.970, 386.527 445.990 C 391.912 446.001, 396 443.972, 396 441.289 C 396 440.410, 393.285 437.235, 389.967 434.232 C 381.832 426.870, 378.759 421, 383.040 421 C 385.272 421, 389.115 423.467, 395.889 429.250 C 402.948 435.276, 405.019 434.233, 404.978 424.668 C 404.954 419.058, 402.262 411.988, 398.688 408.151 C 395.191 404.397, 387.624 401.076, 381.316 400.527 L 375.500 400.021 382.293 401.455 M 621.813 401.683 C 622.534 401.972, 623.397 401.936, 623.729 401.604 C 624.061 401.272, 623.471 401.036, 622.417 401.079 C 621.252 401.127, 621.015 401.364, 621.813 401.683 M 854.323 406.696 C 853.125 406.929, 851.572 407.881, 850.871 408.810 C 849.793 410.240, 849.812 410.307, 850.998 409.250 C 851.769 408.563, 853.183 408, 854.141 408 C 855.099 408, 856.160 407.550, 856.500 407 C 856.840 406.450, 856.979 406.061, 856.809 406.136 C 856.639 406.211, 855.520 406.463, 854.323 406.696 M 148.500 437.208 C 143.744 439.935, 142.651 444.651, 146 448 C 148.978 450.978, 154.330 450.667, 156.927 447.365 C 159.737 443.793, 159.542 440.572, 156.365 438.073 C 153.407 435.745, 151.429 435.528, 148.500 437.208 M 853.655 437.829 C 851.075 440.680, 851.542 445.494, 854.635 447.927 C 858.350 450.850, 860.714 450.518, 863.011 446.750 C 865.519 442.637, 865.509 440.923, 862.961 438.189 C 860.466 435.511, 855.912 435.335, 853.655 437.829 M 288.275 447.496 C 280.876 453.830, 278.534 466.916, 283.700 473.056 C 288.551 478.820, 294.249 479.741, 300.027 475.694 C 306.231 471.348, 310.238 460.076, 308.108 452.965 C 306.330 447.031, 302.589 444, 297.044 444 C 293.137 444, 291.682 444.580, 288.275 447.496 M 705.038 447.750 C 695.753 457.093, 701.067 473.638, 714.618 477.577 C 719.673 479.047, 720.288 479.041, 722.630 477.507 C 727.156 474.541, 729.877 464.971, 728.086 458.320 C 727.417 455.834, 725.138 452.371, 722.061 449.161 C 717.651 444.561, 716.659 444, 712.939 444 C 709.445 444, 708.158 444.611, 705.038 447.750 M 828.239 457.335 C 826.445 457.985, 823.408 459.770, 821.489 461.301 C 818.680 463.543, 818 464.778, 818 467.641 L 818 471.197 829.493 470.479 C 839.287 469.867, 841.357 470.004, 843.493 471.404 C 844.872 472.307, 846 473.468, 846 473.985 C 846 475.378, 839.639 476.741, 829.500 477.520 C 824.550 477.900, 819.712 478.629, 818.750 479.141 C 816.114 480.541, 816.641 483.520, 820.029 486.371 C 823.790 489.536, 828.117 490.388, 837.330 489.778 C 848.265 489.055, 853.722 486.214, 862.501 476.673 C 866.567 472.254, 869.660 468.258, 869.373 467.794 C 868.528 466.427, 855.784 460.286, 849.171 458.058 C 842.410 455.780, 833.386 455.468, 828.239 457.335 M 161.284 458.478 C 158.415 459.283, 152.638 461.668, 148.445 463.777 L 140.822 467.613 145.797 473.556 C 155.793 485.501, 163.835 490.082, 174.868 490.117 C 182.243 490.140, 187.952 488.334, 191.736 484.778 C 196.180 480.603, 194.751 479.668, 179.864 477.004 C 173.043 475.784, 167 472.909, 167 470.886 C 167 470.057, 169.817 469.935, 177.250 470.443 C 182.887 470.828, 188.400 471.340, 189.500 471.581 C 190.600 471.823, 192.138 471.604, 192.919 471.097 C 194.143 470.300, 194.142 469.648, 192.909 466.337 C 191.789 463.327, 190.428 461.977, 186.601 460.077 C 180.490 457.042, 168.989 456.316, 161.284 458.478 M 230.500 496.109 C 211.532 498.073, 191.934 508.312, 177.694 523.698 C 170.579 531.385, 162.424 542.966, 158.115 551.501 C 155.852 555.985, 154 560.115, 154 560.680 C 154 561.881, 168.997 569.468, 180.500 574.086 C 195.581 580.141, 204.384 582.108, 219 582.690 C 231.054 583.170, 233.178 582.997, 238.834 581.075 C 256.284 575.144, 268.253 563.620, 273.036 548.145 C 275.076 541.542, 275.674 531.535, 274.087 530.554 C 273.585 530.244, 261.773 533.843, 247.837 538.554 C 213.309 550.224, 211.729 550.653, 208.572 549.215 C 205.601 547.861, 205.163 544.582, 207.595 541.895 C 208.472 540.926, 213.309 538.558, 218.345 536.632 C 240.066 528.326, 263.463 519.857, 266.206 519.309 C 267.837 518.983, 269.409 518.097, 269.700 517.340 C 271.352 513.033, 260.661 501.480, 252.286 498.522 C 245.856 496.251, 237.775 495.356, 230.500 496.109 M 765.500 496.016 C 759.555 497.201, 753.231 499.955, 752.584 501.641 C 752.271 502.458, 751.561 502.847, 751.007 502.504 C 750.453 502.162, 750 502.385, 750 503 C 750 503.615, 749.621 503.884, 749.158 503.598 C 747.516 502.583, 739 513.030, 739 516.060 C 739 517.643, 752.036 523.066, 781 533.534 C 798.159 539.735, 805 543.846, 805 547.956 C 805 550.680, 803.334 550.860, 796.022 548.929 C 785.498 546.148, 757.247 537.442, 747.500 533.977 C 733.946 529.157, 734.247 529.168, 733.445 533.442 C 730.557 548.837, 741.808 568.826, 757.946 576.973 C 766 581.038, 777.670 584.009, 785.410 583.965 C 800.156 583.881, 821.239 577.702, 841.500 567.527 C 855.291 560.601, 854.871 561.595, 848.988 549.778 C 842.725 537.197, 838.229 531.090, 827.068 520 C 818.778 511.763, 814.776 508.609, 808.500 505.367 C 798.549 500.227, 789.934 497.272, 781.223 496.012 C 773.538 494.901, 771.096 494.901, 765.500 496.016 M 154.636 502.636 C 151.046 506.227, 151.045 511.104, 154.635 513.927 C 156.084 515.067, 158.309 516, 159.579 516 C 162.810 516, 166.887 512.101, 167.613 508.316 C 168.105 505.751, 167.725 504.634, 165.657 502.566 C 162.264 499.173, 158.073 499.200, 154.636 502.636 M 846.190 502.298 C 845.002 503.562, 843.748 506.011, 843.402 507.741 C 842.883 510.337, 843.254 511.331, 845.533 513.443 C 848.876 516.541, 851.856 516.688, 855.365 513.927 C 857.398 512.329, 858 510.973, 858 508 C 858 501.138, 850.625 497.577, 846.190 502.298 M 746 507 C 746 507.550, 746.450 508, 747 508 C 747.550 508, 748 507.550, 748 507 C 748 506.450, 747.550 506, 747 506 C 746.450 506, 746 506.450, 746 507 M 350.033 557.601 C 343.048 559.478, 336.970 563.414, 329.798 570.704 C 323.272 577.337, 319.632 584.506, 317.374 595.172 C 314.581 608.362, 316.626 640.887, 321.218 656.308 C 322.342 660.084, 322.386 660.111, 326.426 659.446 C 334.704 658.083, 353.780 651.760, 363 647.322 C 388.125 635.228, 403.041 607.355, 396.388 584.932 C 394.433 578.341, 390.738 570.857, 388.537 569.031 C 387.137 567.869, 386.440 568.148, 383.387 571.094 C 381.446 572.967, 375.846 580.125, 370.943 587 C 355.304 608.931, 346.989 620.411, 346.100 621.300 C 344.849 622.551, 341 619.849, 341 617.720 C 341 613.972, 357.111 585.786, 367.595 571.191 C 371.668 565.521, 375 560.277, 375 559.539 C 375 556.040, 360.135 554.886, 350.033 557.601 M 634.192 557.111 C 631.822 557.677, 629.646 558.758, 629.356 559.513 C 629.067 560.268, 632.399 566.424, 636.762 573.193 C 641.125 579.962, 646.431 588.650, 648.552 592.500 C 650.674 596.350, 655.018 603.487, 658.205 608.359 C 661.392 613.232, 664 617.856, 664 618.634 C 664 620.428, 659.347 622.245, 656.812 621.440 C 654.367 620.664, 645.477 608.667, 636.849 594.500 C 629.561 582.532, 618.514 569.194, 615.792 569.075 C 613.466 568.973, 609.533 576.017, 607.460 584 C 606.191 588.886, 605.916 592.769, 606.352 599.636 C 607.678 620.541, 617.763 635.546, 636.500 644.494 C 644.890 648.500, 684.209 662, 687.489 662 C 689.390 662, 689.640 660.590, 691.083 641.721 C 693.104 615.298, 690.877 595.621, 684.325 582 C 680.374 573.787, 667.990 561.888, 660.463 559.072 C 653.652 556.524, 640.696 555.557, 634.192 557.111 M 418.514 566.168 C 415.374 568.637, 412.995 573.629, 413.010 577.718 C 413.025 582.165, 417.330 590.179, 421.930 594.326 C 426.085 598.072, 426.218 598.114, 428.229 596.326 C 436.229 589.216, 437.411 568.966, 430.055 565.030 C 426.841 563.309, 421.475 563.838, 418.514 566.168 M 575.756 568.009 C 571.979 571.786, 571.774 572.295, 572.207 576.806 C 572.911 584.132, 578.240 594.919, 581.187 594.985 C 582.632 595.017, 589.079 587.311, 590.995 583.261 C 593.236 578.524, 593.619 570.389, 591.718 567.913 C 589.873 565.510, 586.490 564, 582.948 564 C 580.566 564, 578.755 565.009, 575.756 568.009 M 201.455 597.455 C 199.683 599.226, 199 601, 199 603.832 C 199 608.487, 200.504 609.990, 205.885 610.711 C 209.210 611.157, 210.262 610.828, 212.424 608.667 C 217.500 603.591, 214.091 595, 207 595 C 205.052 595, 203.002 595.907, 201.455 597.455 M 749.750 597.080 C 746.847 598.771, 747.728 601.682, 752.053 604.685 C 766.553 614.756, 775.416 622.918, 773.706 624.627 C 772.519 625.815, 766.147 622.785, 756.616 616.501 C 751.193 612.925, 745.686 610, 744.378 610 C 740.626 610, 741.068 616.388, 745.250 622.604 C 752.347 633.150, 764.230 638.425, 781 638.473 C 794.938 638.513, 794.536 638.984, 790.578 627.232 C 786.588 615.384, 783.875 610.871, 777.058 604.742 C 769.061 597.552, 755.481 593.742, 749.750 597.080 M 798.174 598.314 C 795.407 601.260, 795.324 606.324, 798 609 C 800.869 611.869, 807.367 611.742, 809.443 608.777 C 814.907 600.978, 804.633 591.439, 798.174 598.314 M 242.404 598.827 C 230.899 602.804, 224.472 610.852, 215.574 632.427 C 213.553 637.326, 213.982 637.640, 223.950 638.574 C 237.084 639.805, 250.224 636.744, 258.322 630.568 C 263.018 626.986, 267.203 618.980, 266.811 614.331 C 266.313 608.437, 266.318 608.435, 250.813 619.541 C 247.582 621.856, 240.122 624.455, 239.241 623.574 C 239.067 623.400, 239.415 622.184, 240.013 620.871 C 240.914 618.894, 247.250 613.798, 261.460 603.623 C 263.153 602.411, 263.258 601.862, 262.232 599.610 C 261.118 597.165, 260.614 597.002, 254.271 597.033 C 250.486 597.051, 245.253 597.842, 242.404 598.827 M 566.750 602.080 C 564.299 603.508, 564.560 607.578, 567.223 609.443 C 570.148 611.493, 572.319 611.410, 574.345 609.171 C 576.613 606.665, 576.420 604.407, 573.777 602.557 C 571.222 600.767, 569.236 600.632, 566.750 602.080 M 423.033 620.589 C 420.847 622.564, 417.868 626.615, 416.411 629.593 C 413.979 634.563, 413.800 635.767, 414.229 644.254 C 414.687 653.305, 417.092 662.008, 420.376 666.500 C 421.672 668.272, 422.092 668.054, 427.717 662.688 C 438.834 652.084, 442.366 640.650, 438.564 627.572 C 435.428 616.784, 429.964 614.327, 423.033 620.589 M 575.914 619.086 C 569.442 625.558, 567.205 638.446, 571.074 646.975 C 575.062 655.767, 585.512 667, 589.703 667 C 590.385 667, 591.915 663.798, 593.103 659.886 C 594.856 654.117, 595.171 651.129, 594.769 644.090 C 594.173 633.629, 591.676 627.310, 585.744 621.250 C 581.092 616.497, 578.970 616.030, 575.914 619.086 M 432.923 673.923 C 429.321 677.525, 429.240 679.944, 432.589 683.923 C 435.974 687.946, 439.323 687.937, 443.099 683.894 C 446.850 679.878, 446.799 676.850, 442.923 673.589 C 438.944 670.240, 436.525 670.321, 432.923 673.923 M 567.025 673.821 C 563.228 677.619, 563.200 680.354, 566.923 684.077 C 570.547 687.701, 573.370 687.782, 576.548 684.354 C 580.887 679.671, 578.907 672.891, 572.775 671.441 C 570.591 670.924, 569.450 671.396, 567.025 673.821 M 299 688.011 C 293.775 688.489, 285.292 689.177, 280.149 689.541 L 270.799 690.202 271.511 700.351 C 271.903 705.933, 272.285 710.564, 272.362 710.643 C 272.438 710.722, 277.675 709.931, 284 708.886 C 299.339 706.351, 331.120 705.337, 345 706.940 C 362.006 708.903, 377.745 712.445, 389.500 716.954 C 395.550 719.275, 404.020 722.471, 408.321 724.057 C 424.343 729.964, 445.096 740.911, 458.500 750.526 C 470.119 758.861, 484.745 776.668, 487.481 785.810 C 488.185 788.162, 484.316 785.518, 460.402 767.308 C 428.875 743.301, 400.046 735.791, 351.115 738.840 C 332.081 740.026, 322.713 741.329, 307.900 744.851 C 298.071 747.188, 277.920 753.958, 270.605 757.381 C 267.797 758.695, 259.176 762.747, 251.447 766.385 C 243.718 770.023, 236.856 773, 236.197 773 C 234.342 773, 234.723 774.454, 238.539 781.942 L 242.078 788.887 245.789 786.347 C 260.930 775.982, 300.376 761.498, 325.993 756.896 C 342.273 753.971, 369.944 753.348, 389.480 755.466 C 398.269 756.420, 408.798 758.053, 412.879 759.097 C 424.097 761.966, 445.997 771.681, 460 780.001 C 466.875 784.086, 475.650 788.935, 479.500 790.777 C 485.095 793.455, 488.239 795.968, 495.166 803.300 L 503.832 812.474 511.843 803.911 C 518.942 796.323, 521.134 794.692, 531.086 789.589 C 537.263 786.422, 545.058 782.135, 548.409 780.064 C 566.618 768.803, 584.633 760.976, 601.737 756.896 C 612.874 754.239, 637.093 752.893, 653.407 754.023 C 666.111 754.903, 688.442 757.529, 692.500 758.620 C 711.651 763.768, 740.553 775.343, 758.749 785.150 L 767.998 790.135 768.874 787.818 C 769.355 786.543, 770.070 783.590, 770.462 781.255 C 770.854 778.921, 771.592 776.752, 772.103 776.436 C 773.766 775.409, 771.987 774.016, 763.674 769.836 C 718.952 747.350, 694.644 740.567, 649.372 737.944 C 622.944 736.412, 610.715 737.475, 594.500 742.711 C 577.644 748.154, 564.217 755.487, 550.184 766.914 C 541.453 774.024, 535.564 778.513, 525.167 785.984 C 521.048 788.944, 520.870 788.984, 521.558 786.799 C 523.792 779.704, 529.635 769.926, 534.786 764.659 C 547.448 751.715, 565.573 738.636, 581.485 730.961 C 601.342 721.383, 633.149 710.513, 648.500 708.059 C 661.054 706.052, 683.503 705.161, 698.250 706.084 C 710.676 706.861, 735.017 710.275, 737.037 711.523 C 737.580 711.858, 739.139 691, 738.620 690.349 C 737.879 689.420, 707.524 687.858, 689.520 687.822 C 671.080 687.786, 663.712 688.195, 652.490 689.876 C 620.339 694.693, 589.700 706.225, 558.929 725.091 C 547.746 731.947, 540.315 738.230, 530.158 749.415 C 522.948 757.355, 507.848 778.754, 506.534 782.894 C 505.543 786.015, 504.716 785.511, 502.203 780.250 C 500.955 777.638, 497.038 771.450, 493.498 766.500 C 473.051 737.903, 448.728 720.204, 406.330 703.071 C 390.335 696.607, 372.144 691.885, 354.211 689.540 C 340.267 687.718, 311.056 686.909, 299 688.011 M 315 717.660 C 298.669 720.194, 291.921 721.700, 279.759 725.525 C 271.917 727.993, 264.980 730.203, 264.345 730.438 C 262.912 730.967, 265.697 743, 267.252 743 C 267.805 743, 271.386 741.872, 275.209 740.493 C 295.422 733.201, 321.748 728.530, 348.500 727.488 C 366.439 726.789, 370.250 726.289, 369.769 724.693 C 368.968 722.032, 360.408 719.134, 350.211 718.072 C 340.456 717.056, 320.408 716.821, 315 717.660 M 658.975 717.908 C 652.350 718.844, 649.836 720.076, 647.607 723.477 C 646.309 725.458, 646.221 726.143, 647.215 726.508 C 647.922 726.768, 657.275 727.396, 668 727.905 C 690.964 728.994, 704.541 731.547, 727.432 739.084 C 735.645 741.788, 742.470 744, 742.599 744 C 742.729 744, 743.586 742.033, 744.504 739.629 C 746.880 733.407, 746.250 730.830, 742 729.383 C 731.240 725.719, 713.915 720.679, 707.673 719.397 C 699.454 717.708, 667.334 716.726, 658.975 717.908 M 342 769.121 C 326.707 770.878, 302.365 776.923, 283.507 783.646 C 276.175 786.260, 234.679 806.067, 231.119 808.652 C 230.730 808.935, 237.133 824, 237.642 824 C 237.796 824, 243.323 820.906, 249.923 817.124 C 280.427 799.649, 318.736 788.519, 352.500 787.324 C 394.064 785.853, 425.530 793.265, 456.972 811.935 C 468.464 818.759, 471.045 820.667, 485.723 833.195 C 496.646 842.519, 500.542 845.006, 504.200 844.991 C 507.857 844.976, 515.710 839.873, 526.500 830.501 C 554.039 806.580, 586.360 791.876, 620.048 787.940 C 632.700 786.462, 661.018 787.248, 675.478 789.480 C 702.554 793.658, 739.103 806.591, 760.785 819.665 C 765.891 822.744, 770.206 825.092, 770.372 824.882 C 770.792 824.352, 777 810.848, 777 810.465 C 777 810.294, 772.837 807.932, 767.750 805.217 C 762.663 802.502, 754.675 798.222, 750 795.706 C 737.047 788.736, 712.914 779.393, 697.937 775.551 C 672.742 769.088, 668.669 768.568, 643 768.543 C 622.197 768.523, 618.315 768.782, 609.175 770.794 C 587.154 775.644, 565.627 784.098, 547.222 795.125 C 535.319 802.256, 535.341 802.238, 519.382 818.118 L 505.264 832.166 494.286 821.333 C 480.775 808, 471.220 800.614, 456.949 792.471 C 440.629 783.159, 428.970 778.418, 412.903 774.563 C 387.647 768.502, 363.512 766.649, 342 769.121 M 338.500 802.107 C 308.771 805.233, 278.458 815.459, 247.962 832.650 C 242.208 835.893, 235.588 839.392, 233.250 840.425 C 230.913 841.459, 229 842.960, 229 843.762 C 229 845.820, 234.851 856.555, 237.064 858.558 C 238.804 860.133, 239.351 859.973, 246.704 855.741 C 274.511 839.735, 304.775 829.278, 334.500 825.404 C 349.927 823.394, 377.966 823.141, 389.500 824.908 C 420.689 829.685, 442.235 839.494, 473.984 863.368 C 485.174 871.782, 489.092 874.490, 492.778 876.355 C 502.476 881.263, 513.957 877.648, 533.500 863.535 C 558.714 845.327, 570.350 838.692, 587.597 832.688 C 621.280 820.964, 661.629 820.198, 699.552 830.562 C 720.858 836.385, 749.330 848.719, 763.195 858.133 C 766.327 860.260, 769.118 862, 769.397 862 C 769.675 862, 771.906 858.904, 774.354 855.119 C 776.803 851.335, 779.299 847.933, 779.903 847.560 C 781.791 846.393, 781.136 845.444, 776.750 842.996 C 774.413 841.691, 768 837.928, 762.500 834.634 C 749.563 826.885, 742.612 823.519, 725.429 816.678 C 698.271 805.868, 679.913 802.101, 650.500 801.306 C 601.715 799.988, 567.787 811.527, 530 842.289 C 519.080 851.179, 514.800 853.610, 507.851 854.870 C 498.666 856.536, 492.072 854.001, 480.483 844.346 C 467.125 833.217, 464.075 830.936, 454.086 824.603 C 435.653 812.915, 414.813 805.425, 392.699 802.540 C 380.013 800.885, 352.237 800.663, 338.500 802.107 M 340.933 839.063 C 330.070 840.662, 312.897 845.079, 298.372 850.010 C 283.945 854.908, 280 856.975, 280 859.636 C 280 862.235, 284.852 862.092, 297.586 859.118 C 316.750 854.642, 326.371 853.596, 348.500 853.582 C 390.287 853.557, 418.753 862.332, 454 886.106 C 477.668 902.069, 492.449 909.017, 502.676 908.985 C 513.868 908.950, 530.716 901.468, 553.673 886.335 C 588.983 863.060, 619.108 853.906, 660.458 853.884 C 675.592 853.877, 689.664 855.401, 708.324 859.069 C 713.726 860.131, 720.884 861, 724.228 861 L 730.310 861 728.405 858.846 C 724.700 854.657, 706.865 847.557, 687.237 842.457 C 666.711 837.124, 630.463 836.604, 609.500 841.343 C 585.280 846.818, 568.516 854.251, 545 869.941 C 521.425 885.671, 510.616 889.520, 496.685 887.146 C 488.369 885.728, 486.429 884.750, 472.506 874.949 C 444.331 855.118, 417.727 843.244, 393 839.464 C 382.694 837.889, 350.594 837.641, 340.933 839.063" stroke="none" fill="black" fill-rule="evenodd"/>
</svg>